<?xml version="1.0" standalone="no"?>
<!DOCTYPE svg PUBLIC "-//W3C//DTD SVG 20010904//EN"
 "http://www.w3.org/TR/2001/REC-SVG-20010904/DTD/svg10.dtd">
<svg version="1.0" xmlns="http://www.w3.org/2000/svg"
 width="36.000000pt" height="37.000000pt" viewBox="0 0 36.000000 37.000000"
 preserveAspectRatio="xMidYMid meet">

<g transform="translate(0.000000,37.000000) scale(0.100000,-0.100000)"
fill="#000000" stroke="none">
<path d="M130 320 c-15 -9 5 -14 63 -13 9 0 17 -4 17 -9 0 -5 -20 -6 -45 -2
-64 9 -90 0 -109 -40 -16 -35 -22 -96 -8 -96 4 1 18 7 32 15 14 8 32 14 40 14
8 0 -4 -10 -27 -22 -37 -19 -40 -24 -29 -40 15 -19 42 -22 78 -8 17 6 31 5 48
-5 25 -15 25 -15 2 -9 -13 4 -37 1 -54 -6 -26 -11 -28 -13 -13 -22 35 -19 135
-6 104 14 -11 7 -10 9 4 9 21 0 22 23 2 43 -12 13 -12 17 5 32 10 9 20 29 22
43 3 24 4 25 20 9 24 -24 31 -21 23 10 -10 40 -24 53 -59 54 -26 0 -28 2 -11
9 19 7 18 9 -8 19 -35 13 -77 14 -97 1z"/>
<path d="M297 185 c-4 -8 -2 -17 3 -20 6 -4 10 3 10 14 0 25 -6 27 -13 6z"/>
<path d="M90 33 c0 -11 7 -20 15 -20 18 0 16 28 -2 35 -8 2 -13 -5 -13 -15z"/>
<path d="M150 36 c0 -9 2 -16 4 -16 2 0 11 -3 20 -6 12 -5 16 0 15 17 0 13 -3
18 -6 11 -4 -10 -8 -10 -19 -1 -11 9 -14 8 -14 -5z"/>
<path d="M204 39 c-3 -6 -1 -16 5 -22 8 -8 11 -5 11 11 0 24 -5 28 -16 11z"/>
<path d="M249 48 c-7 -24 -5 -38 7 -38 8 0 14 5 14 10 0 6 -5 10 -11 10 -5 0
-7 5 -4 10 3 6 4 10 1 10 -3 0 -6 -1 -7 -2z"/>
<path d="M131 24 c0 -11 3 -14 6 -6 3 7 2 16 -1 19 -3 4 -6 -2 -5 -13z"/>
</g>
</svg>
