<?xml version="1.0" encoding="UTF-8"?>
<svg xmlns="http://www.w3.org/2000/svg" xmlns:xlink="http://www.w3.org/1999/xlink" width="98px" height="100px" viewBox="0 0 98 100" version="1.1">
<g id="surface1">
<path style=" stroke:none;fill-rule:nonzero;fill:rgb(100%,100%,100%);fill-opacity:1;" d="M 35.390625 13.585938 C 31.304688 16.03125 36.75 17.390625 52.539062 17.121094 C 54.988281 17.121094 57.167969 18.207031 57.167969 19.566406 C 57.167969 20.925781 51.722656 21.195312 44.917969 20.109375 C 27.496094 17.664062 20.417969 20.109375 15.246094 30.976562 C 10.890625 40.488281 9.253906 57.066406 13.066406 57.066406 C 14.15625 56.792969 17.964844 55.164062 21.777344 52.988281 C 25.589844 50.816406 30.488281 49.183594 32.667969 49.183594 C 34.84375 49.183594 31.578125 51.902344 25.316406 55.164062 C 15.246094 60.324219 14.429688 61.683594 17.421875 66.03125 C 21.503906 71.195312 28.855469 72.011719 38.65625 68.207031 C 43.285156 66.574219 47.09375 66.847656 51.722656 69.566406 C 58.527344 73.640625 58.527344 73.640625 52.265625 72.011719 C 48.726562 70.925781 42.195312 71.738281 37.566406 73.640625 C 30.488281 76.628906 29.945312 77.175781 34.027344 79.621094 C 43.554688 84.78125 70.777344 81.25 62.339844 75.816406 C 59.34375 73.914062 59.617188 73.371094 63.429688 73.371094 C 69.144531 73.371094 69.417969 67.121094 63.972656 61.683594 C 60.707031 58.152344 60.707031 57.066406 65.332031 52.988281 C 68.054688 50.542969 70.777344 45.109375 71.320312 41.304688 C 72.140625 34.78125 72.410156 34.511719 76.765625 38.859375 C 83.300781 45.378906 85.207031 44.566406 83.027344 36.140625 C 80.304688 25.273438 76.496094 21.738281 66.964844 21.46875 C 59.890625 21.46875 59.34375 20.925781 63.972656 19.023438 C 69.144531 17.121094 68.871094 16.574219 61.792969 13.859375 C 52.265625 10.324219 40.832031 10.054688 35.390625 13.585938 Z M 35.390625 13.585938 "/>
<path style=" stroke:none;fill-rule:nonzero;fill:rgb(100%,100%,100%);fill-opacity:1;" d="M 80.851562 50.273438 C 79.761719 52.445312 80.304688 54.890625 81.667969 55.707031 C 83.300781 56.792969 84.390625 54.890625 84.390625 51.902344 C 84.390625 45.109375 82.753906 44.566406 80.851562 50.273438 Z M 80.851562 50.273438 "/>
<path style=" stroke:none;fill-rule:nonzero;fill:rgb(100%,100%,100%);fill-opacity:1;" d="M 24.5 91.574219 C 24.5 94.566406 26.40625 97.011719 28.582031 97.011719 C 33.484375 97.011719 32.9375 89.402344 28.039062 87.5 C 25.859375 86.957031 24.5 88.859375 24.5 91.574219 Z M 24.5 91.574219 "/>
<path style=" stroke:none;fill-rule:nonzero;fill:rgb(100%,100%,100%);fill-opacity:1;" d="M 40.832031 90.761719 C 40.832031 93.207031 41.378906 95.109375 41.921875 95.109375 C 42.464844 95.109375 44.917969 95.925781 47.367188 96.738281 C 50.632812 98.097656 51.722656 96.738281 51.449219 92.121094 C 51.449219 88.585938 50.632812 87.226562 49.816406 89.128906 C 48.726562 91.847656 47.640625 91.847656 44.644531 89.402344 C 41.648438 86.957031 40.832031 87.226562 40.832031 90.761719 Z M 40.832031 90.761719 "/>
<path style=" stroke:none;fill-rule:nonzero;fill:rgb(100%,100%,100%);fill-opacity:1;" d="M 55.535156 89.945312 C 54.714844 91.574219 55.261719 94.292969 56.894531 95.925781 C 59.070312 98.097656 59.890625 97.28125 59.890625 92.933594 C 59.890625 86.414062 58.527344 85.324219 55.535156 89.945312 Z M 55.535156 89.945312 "/>
<path style=" stroke:none;fill-rule:nonzero;fill:rgb(100%,100%,100%);fill-opacity:1;" d="M 67.785156 87.5 C 65.878906 94.023438 66.421875 97.824219 69.6875 97.824219 C 71.867188 97.824219 73.5 96.46875 73.5 95.109375 C 73.5 93.476562 72.140625 92.390625 70.503906 92.390625 C 69.144531 92.390625 68.601562 91.03125 69.417969 89.675781 C 70.234375 88.042969 70.503906 86.957031 69.6875 86.957031 C 68.871094 86.957031 68.054688 87.226562 67.785156 87.5 Z M 67.785156 87.5 "/>
<path style=" stroke:none;fill-rule:nonzero;fill:rgb(100%,100%,100%);fill-opacity:1;" d="M 35.660156 94.023438 C 35.660156 97.011719 36.476562 97.824219 37.292969 95.652344 C 38.109375 93.75 37.839844 91.304688 37.023438 90.488281 C 36.207031 89.402344 35.390625 91.03125 35.660156 94.023438 Z M 35.660156 94.023438 "/>
</g>
</svg>
