<?xml version="1.0" standalone="no"?>
<!DOCTYPE svg PUBLIC "-//W3C//DTD SVG 20010904//EN"
 "http://www.w3.org/TR/2001/REC-SVG-20010904/DTD/svg10.dtd">
<svg version="1.0" xmlns="http://www.w3.org/2000/svg"
 width="101.000000pt" height="103.000000pt" viewBox="0 0 101.000000 103.000000"
 preserveAspectRatio="xMidYMid meet">

<g transform="translate(0.000000,103.000000) scale(0.100000,-0.100000)"
fill="#000000" stroke="none">
<path d="M385 912 c-53 -18 -149 -71 -142 -78 2 -2 28 0 57 6 80 15 143 12
191 -10 54 -24 70 -25 62 -4 -5 14 0 15 33 10 37 -5 112 -9 143 -7 11 1 10 6
-5 22 -61 68 -231 98 -339 61z"/>
<path d="M370 835 c-8 -2 -48 -9 -88 -15 -73 -12 -73 -12 -107 -64 -44 -66
-69 -162 -62 -239 3 -33 10 -64 15 -69 7 -7 32 2 74 25 68 38 167 71 196 65 9
-2 -7 -11 -38 -21 -30 -9 -77 -31 -105 -48 -27 -18 -65 -38 -82 -46 -18 -7
-33 -17 -33 -21 0 -5 13 -29 29 -54 23 -37 35 -46 66 -51 55 -9 123 2 176 28
l47 23 108 -44 c114 -46 144 -52 144 -31 0 22 -17 40 -31 33 -8 -4 -6 -1 3 6
13 11 15 24 11 56 -5 40 -7 42 -40 42 l-35 0 61 71 c57 65 82 109 46 79 -8 -7
-15 -8 -15 -2 0 5 6 15 14 21 18 15 27 63 14 79 -20 24 13 12 37 -13 14 -16
26 -22 30 -15 8 12 35 14 35 1 0 -5 -10 -12 -22 -15 -22 -6 -22 -7 8 -20 33
-15 50 -33 40 -43 -3 -3 -12 0 -21 7 -19 15 -34 5 -17 -12 14 -14 16 -54 3
-63 -6 -3 -13 10 -17 30 -9 50 -29 59 -21 9 4 -25 16 -47 32 -59 29 -24 31
-32 8 -37 -15 -3 -15 -4 0 -16 28 -24 42 21 42 133 0 88 -4 107 -28 160 -35
75 -85 129 -104 113 -9 -7 -40 -9 -88 -5 -43 3 -75 2 -75 -4 0 -14 -58 -11
-89 6 -30 15 -95 26 -121 20z m-16 -121 c-8 -69 -8 -69 -16 -29 -6 26 -5 41 2
43 5 2 10 18 10 35 0 16 2 28 5 25 3 -3 3 -36 -1 -74z m-87 14 c-2 -13 -4 -5
-4 17 -1 22 1 32 4 23 2 -10 2 -28 0 -40z m50 -45 c-2 -16 -4 -3 -4 27 0 30 2
43 4 28 2 -16 2 -40 0 -55z m93 50 c0 -22 -2 -25 -10 -13 -13 20 -13 40 0 40
6 0 10 -12 10 -27z m-152 -123 c0 -55 -1 -55 -9 -15 -12 62 -12 67 -9 115 l3
45 8 -45 c4 -25 7 -70 7 -100z m142 52 c0 -7 -4 -10 -10 -7 -6 4 -10 -9 -11
-32 0 -21 -3 -32 -6 -25 -3 7 -2 34 2 59 5 33 9 42 16 32 5 -8 9 -20 9 -27z
m-106 13 c-4 -8 -8 -15 -10 -15 -2 0 -4 7 -4 15 0 8 4 15 10 15 5 0 7 -7 4
-15z m13 -72 c-3 -10 -5 -2 -5 17 0 19 2 27 5 18 2 -10 2 -26 0 -35z m20 -25
c-2 -13 -4 -3 -4 22 0 25 2 35 4 23 2 -13 2 -33 0 -45z m393 38 c0 -2 -7 -7
-16 -10 -8 -3 -12 -2 -9 4 6 10 25 14 25 6z"/>
<path d="M754 539 c-3 -6 -1 -16 5 -22 8 -8 11 -5 11 11 0 24 -5 28 -16 11z"/>
<path d="M820 359 c0 -5 5 -7 10 -4 6 3 10 8 10 11 0 2 -4 4 -10 4 -5 0 -10
-5 -10 -11z"/>
<path d="M395 294 c-39 -19 -63 -24 -107 -22 -54 3 -56 2 -41 -15 9 -10 46
-32 82 -50 61 -30 73 -32 166 -32 91 0 106 3 165 31 l65 30 -70 18 c-39 10
-97 28 -131 42 -33 13 -65 24 -70 23 -5 0 -31 -12 -59 -25z"/>
<path d="M248 75 c4 -59 27 -78 34 -27 l4 27 12 -28 c19 -46 37 -34 37 26 l0
52 -45 3 -45 3 3 -56z m62 25 c0 -5 -7 -10 -15 -10 -8 0 -15 5 -15 10 0 6 7
10 15 10 8 0 15 -4 15 -10z"/>
<path d="M370 75 c0 -42 3 -55 15 -55 12 0 15 13 15 55 0 42 -3 55 -15 55 -12
0 -15 -13 -15 -55z"/>
<path d="M420 75 c0 -30 5 -55 10 -55 6 0 10 14 10 30 0 39 16 39 24 0 3 -16
10 -30 16 -30 6 0 13 14 17 30 3 17 9 30 14 30 5 0 9 -13 9 -30 0 -16 5 -30
10 -30 6 0 10 25 10 55 0 48 -2 55 -20 55 -13 0 -22 -9 -26 -25 -7 -28 -24
-24 -24 6 0 14 -7 19 -25 19 -24 0 -25 -3 -25 -55z"/>
<path d="M570 75 l0 -55 40 0 c42 0 56 16 18 22 -28 4 -36 28 -9 28 12 0 21 5
21 10 0 6 -9 10 -20 10 -11 0 -20 5 -20 10 0 6 11 10 25 10 14 0 25 5 25 10 0
6 -18 10 -40 10 l-40 0 0 -55z"/>
<path d="M669 114 c-12 -14 -10 -19 9 -34 12 -10 28 -20 35 -23 6 -2 9 -8 4
-12 -4 -5 -12 -4 -18 2 -6 6 -18 9 -25 6 -23 -9 4 -33 36 -33 55 0 65 60 11
68 -11 2 -21 8 -21 13 0 6 9 9 20 7 10 -2 20 2 22 7 5 18 -58 17 -73 -1z"/>
</g>
</svg>
